PathFileType	4	(X/Y/Z)	../Python\running\Running01\task.trc
DataRate	CameraRate	NumFrames	NumMarkers	Units	OrigDataRate	OrigDataStartFrame	OrigNumFrames
200.000000	200.000000	4	30	mm	200.000000	126	169
Frame#	Time	C7			RBAK			CLAV			STRN			RASI			LASI			RTH2			RTH3			RTB2			RHEE			RD5M			RTOE			LTH2			LTH3			LTB2			LTB3			LHEE			LTOE			LD5M			RPSI			RTH1			RTB1			RTB3			LPSI			PE03			T10			PE01			PE02			LTH1			LTB1			
		X1	Y1	Z1	X2	Y2	Z2	X3	Y3	Z3	X4	Y4	Z4	X5	Y5	Z5	X6	Y6	Z6	X7	Y7	Z7	X8	Y8	Z8	X9	Y9	Z9	X10	Y10	Z10	X11	Y11	Z11	X12	Y12	Z12	X13	Y13	Z13	X14	Y14	Z14	X15	Y15	Z15	X16	Y16	Z16	X17	Y17	Z17	X18	Y18	Z18	X19	Y19	Z19	X20	Y20	Z20	X21	Y21	Z21	X22	Y22	Z22	X23	Y23	Z23	X24	Y24	Z24	X25	Y25	Z25	X26	Y26	Z26	X27	Y27	Z27	X28	Y28	Z28	X29	Y29	Z29	X30	Y30	Z30	

127	0.63	740.9738769531252	1349.253295898438	166.6091613769532	724.785095214844	1250.844116210938	288.7678222656251	858.248168945313	1249.375122070313	132.8136596679688	894.1730957031255	1054.776123046875	120.9628601074219	827.1715698242192	846.6386108398442	283.5012207031251	835.6873168945317	855.9804077148442	56.21929168701175	662.795837402344	502.8620605468752	262.2544250488282	706.2663574218752	545.8301391601565	272.5103149414064	504.414001464844	288.4020080566407	233.6131134033204	346.5428771972657	138.8499603271485	137.8525543212891	445.7882385253909	26.83668136596681	198.5346527099611	480.8492736816409	28.37808227539064	147.7389068603516	876.0126342773442	565.9783935546877	34.71693801879884	920.7929077148442	629.1443481445315	16.73221969604493	846.759155273438	264.8222656250001	24.40837860107423	893.3610839843755	280.814666748047	31.72092628479005	756.298034667969	97.10118103027349	70.7024841308594	937.9905395507817	59.74253845214847	52.15114593505862	898.8053588867192	62.04432296752933	9.248303413391117	644.1638183593752	925.3999633789067	224.6239776611329	670.4211425781252	578.075866699219	287.9619750976564	564.7026977539065	301.7516479492189	228.6411132812501	513.2866821289065	242.0289154052736	215.4252471923829	643.126403808594	926.2468261718755	138.4789428710938	628.1431884765627	908.7987670898442	149.9206542968751	684.2595825195315	1058.044677734375	182.254867553711	659.4729003906252	958.600219726563	182.3207702636719	623.8842773437502	905.4006958007817	200.2565155029298	871.5207519531255	624.2956542968752	15.4125099182129	875.9116210937505	338.8090820312501	20.13534927368165	
128	0.635	757.9877929687502	1352.515625	166.1942138671876	744.319519042969	1255.273193359375	289.4759521484376	874.896118164063	1253.310302734375	130.8952331542969	911.5664062500005	1058.92822265625	119.8247680664063	845.2411499023442	848.9598999023442	284.469696044922	854.5786743164067	860.3730468750005	57.82824707031253	674.9703369140627	507.3598327636721	261.8794555664064	719.175231933594	549.5164794921877	272.0593872070314	512.3823852539065	295.2464599609376	233.4776000976564	357.6439208984376	147.6450958251954	136.9769592285157	447.9039306640627	28.75454330444337	198.0391845703126	481.9480590820315	28.62310218811037	147.8107299804688	893.6931762695317	569.859802246094	36.26203536987306	939.0388183593755	632.752136230469	19.13214683532716	877.0473632812505	261.9200439453126	24.96965408325197	922.4985961914067	280.5789184570314	32.9061737060547	795.0314941406255	91.67679595947268	71.70520019531253	977.1000366210942	57.11568450927737	55.19071197509768	938.4459838867192	58.87063598632815	11.3778190612793	663.0076293945315	928.6093750000005	226.1688690185548	683.9165039062502	582.4425048828127	287.4980773925782	572.6746215820315	308.5128479003907	229.4010162353517	521.4926757812502	248.5539398193361	216.3633728027345	661.913024902344	929.9065551757817	139.996322631836	646.994079589844	912.708374023438	150.9085845947266	702.4550781250002	1061.28466796875	185.2311553955079	678.6016845703127	961.6535644531255	184.2429351806641	642.3435668945315	908.5397338867192	201.2090606689454	889.688842773438	628.3186035156252	17.34239387512208	902.0809936523442	337.3506469726564	20.6206455230713	
129	0.64	775.055297851563	1355.658569335938	165.7584838867188	763.811218261719	1259.609375	290.0844726562501	891.552124023438	1257.09375	129.0462188720704	929.0263671875005	1063.017211914063	118.7776031494141	863.3561401367192	851.2229614257817	285.4131164550782	873.489868164063	864.6375122070317	59.49208068847659	687.2294921875002	511.9739990234377	261.6710510253907	732.1895141601565	553.2434692382815	271.928436279297	521.009948730469	302.0116577148439	233.3551635742189	369.5703430175782	156.3641967773438	136.1546630859376	450.4976501464846	31.05579376220705	197.4649200439454	483.5474243164065	29.18373107910158	147.8126220703126	910.9467773437505	573.4287109375002	37.61064910888673	957.0305175781255	635.9825439453127	21.58681869506837	907.0304565429692	259.2974243164064	25.71999359130861	951.1819458007817	280.5346069335939	34.13367462158205	833.703491210938	87.07439422607425	73.16091918945315	1016.041198730469	55.07168579101565	58.28788375854495	977.8159179687505	56.27975845336917	13.74359321594239	681.9444580078127	931.9431762695317	227.606903076172	697.5495605468752	586.903503417969	287.1495971679689	581.2988891601565	315.1835021972657	230.2575988769532	530.3525390625002	254.9777832031251	217.3853759765626	680.7930908203127	933.5728149414067	141.4313964843751	665.9359130859377	916.6478881835942	151.8197326660157	720.6589965820315	1064.465087890625	188.1093139648438	697.8338623046877	964.742309570313	186.0392456054688	660.8853149414065	911.7683105468755	202.0703277587892	907.6010131835942	632.0694580078127	19.20173454284669	927.8127441406255	335.9312133789064	21.23124504089356	
130	0.645	792.1760864257817	1358.65283203125	165.306137084961	783.2568969726567	1263.81640625	290.603729248047	908.2212524414067	1260.691650390625	127.2722549438477	946.5454711914067	1067.015258789063	117.824821472168	881.5064086914067	853.4047851562505	286.3193664550782	892.3974609375005	868.7404785156255	61.1861381530762	699.5527343750002	516.6744384765627	261.6309814453126	745.269470214844	556.9967041015627	272.1345825195314	530.3125000000002	308.6172485351564	233.2387084960939	382.1146850585939	164.9682159423829	135.4491729736329	453.6412353515627	33.81099319458009	196.8098144531251	485.7418518066409	30.14894866943361	147.714584350586	927.8176879882817	576.6741333007815	38.75316619873048	974.763305664063	638.8496704101565	24.04470062255861	936.593383789063	256.9737548828126	26.67192840576173	979.3295288085942	280.6885986328126	35.36944580078126	872.182495117188	83.29385375976565	75.0226974487305	1054.773315429688	53.77569580078128	61.40636062622073	1016.856079101563	54.31995010375979	16.35361862182618	700.9545898437502	935.3754272460942	228.9367828369142	711.2687988281252	591.4260253906252	286.9276123046876	590.601257324219	321.6500549316407	231.1641693115236	539.847106933594	261.2300109863282	218.4396820068361	699.7421875000002	937.2214355468755	142.7838439941407	684.9490356445315	920.5866088867192	152.6572418212891	738.8541259765627	1067.561401367188	190.8600616455079	717.1419677734377	967.8507690429692	187.7058868408204	679.4959716796877	915.062133789063	202.8444671630861	925.2658691406255	635.5296020507815	20.9615592956543	953.0266723632817	334.5680541992189	21.97775650024415	
